<?xml version="1.0" standalone="no"?>
<!DOCTYPE svg PUBLIC "-//W3C//DTD SVG 20010904//EN"
 "http://www.w3.org/TR/2001/REC-SVG-20010904/DTD/svg10.dtd">
<svg version="1.0" xmlns="http://www.w3.org/2000/svg"
 width="8000.000000pt" height="5320.000000pt" viewBox="0 0 8000.000000 5320.000000"
 preserveAspectRatio="xMidYMid meet">

<g transform="translate(0.000000,5320.000000) scale(0.100000,-0.100000)"
fill="#000000" stroke="none">
<path d="M15215 47453 c-572 -46 -1001 -164 -1475 -403 -369 -187 -674 -412
-975 -721 -281 -289 -475 -560 -650 -910 -196 -390 -303 -754 -367 -1249 -16
-129 -25 -30433 -8 -30640 13 -168 40 -302 90 -451 220 -661 805 -1143 1497
-1234 101 -13 3168 -15 26703 -15 23575 0 26602 2 26703 15 696 91 1282 578
1501 1246 45 137 75 292 86 449 13 177 13 30205 0 30455 -15 288 -46 501 -111
760 -255 1014 -931 1865 -1846 2324 -419 209 -869 334 -1342 371 -94 7 -7789
9 -24950 8 -13649 -1 -24834 -3 -24856 -5z m49850 -1991 c430 -99 769 -330
1010 -687 111 -166 214 -425 257 -648 22 -111 22 -123 25 -1664 l4 -1553
-23776 0 -23775 0 0 -13560 0 -13560 -262 2 -263 3 -3 13558 -2 13557 -2290 0
-2291 0 3 1543 3 1542 23 108 c34 161 75 277 147 422 241 482 712 836 1242
934 59 11 124 22 143 24 19 2 11211 3 24870 3 l24835 -1 100 -23z m-48485
-6192 l0 -460 -260 0 -260 0 0 460 0 460 260 0 260 0 0 -460z m5890 5 l0 -455
-980 0 -980 0 0 455 0 455 980 0 980 0 0 -455z m-5890 -1705 l0 -460 -260 0
-260 0 0 460 0 460 260 0 260 0 0 -460z m5890 0 l0 -460 -980 0 -980 0 0 460
0 460 980 0 980 0 0 -460z m-5890 -1700 l0 -460 -260 0 -260 0 0 460 0 460
260 0 260 0 0 -460z m19520 0 l0 -460 -1770 0 -1770 0 0 460 0 460 1770 0
1770 0 0 -460z m-19520 -1705 l0 -455 -260 0 -260 0 0 455 0 455 260 0 260 0
0 -455z m17420 0 l0 -455 -3795 0 -3795 0 0 455 0 455 3795 0 3795 0 0 -455z
m-17420 -1835 l0 -460 -260 0 -260 0 0 460 0 460 260 0 260 0 0 -460z m9300 0
l0 -460 -1570 0 -1570 0 0 460 0 460 1570 0 1570 0 0 -460z m-9300 -1700 l0
-460 -260 0 -260 0 0 460 0 460 260 0 260 0 0 -460z m11530 -5 l0 -455 -2685
0 -2685 0 0 455 0 455 2685 0 2685 0 0 -455z m-11530 -1700 l0 -455 -260 0
-260 0 0 455 0 455 260 0 260 0 0 -455z m5890 0 l0 -455 -980 0 -980 0 0 455
0 455 980 0 980 0 0 -455z m-5890 -1705 l0 -460 -260 0 -260 0 0 460 0 460
260 0 260 0 0 -460z m0 -1700 l0 -460 -260 0 -260 0 0 460 0 460 260 0 260 0
0 -460z m0 -1705 l0 -455 -260 0 -260 0 0 455 0 455 260 0 260 0 0 -455z
m15590 0 l0 -455 -4715 0 -4715 0 0 455 0 455 4715 0 4715 0 0 -455z m3660 0
l0 -455 -1565 0 -1565 0 0 455 0 455 1565 0 1565 0 0 -455z m6950 0 l0 -455
-3145 0 -3145 0 0 455 0 455 3145 0 3145 0 0 -455z m-26200 -1705 l0 -460
-260 0 -260 0 0 460 0 460 260 0 260 0 0 -460z m9300 5 l0 -455 -1570 0 -1570
0 0 455 0 455 1570 0 1570 0 0 -455z m-9300 -1835 l0 -460 -260 0 -260 0 0
460 0 460 260 0 260 0 0 -460z m19520 0 l0 -460 -3800 0 -3800 0 0 460 0 460
3800 0 3800 0 0 -460z m-19520 -1705 l0 -455 -260 0 -260 0 0 455 0 455 260 0
260 0 0 -455z m9300 0 l0 -455 -1570 0 -1570 0 0 455 0 455 1570 0 1570 0 0
-455z m6810 0 l0 -455 -3140 0 -3140 0 0 455 0 455 3140 0 3140 0 0 -455z
m15070 0 l0 -455 -1570 0 -1570 0 0 455 0 455 1570 0 1570 0 0 -455z m6940 0
l0 -455 -3145 0 -3145 0 0 455 0 455 3145 0 3145 0 0 -455z m-38120 -1705 l0
-460 -260 0 -260 0 0 460 0 460 260 0 260 0 0 -460z m17420 5 l0 -455 -3795 0
-3795 0 0 455 0 455 3795 0 3795 0 0 -455z m-17420 -1705 l0 -460 -260 0 -260
0 0 460 0 460 260 0 260 0 0 -460z"/>
<path d="M64145 44730 c-529 -82 -908 -572 -854 -1103 25 -249 125 -453 306
-628 308 -297 751 -369 1138 -185 272 129 472 375 548 676 31 123 30 348 -1
474 -47 189 -129 333 -267 472 -193 196 -410 290 -685 299 -69 2 -152 0 -185
-5z"/>
<path d="M3092 11150 c-190 -50 -367 -192 -449 -360 -23 -47 -49 -112 -58
-145 -23 -87 -29 -298 -16 -555 30 -564 131 -1042 328 -1540 483 -1223 1460
-2199 2683 -2679 425 -167 819 -261 1310 -313 103 -11 5957 -13 33215 -13
31633 0 33097 1 33243 18 789 91 1482 335 2110 744 530 344 1017 824 1366
1348 411 616 673 1318 765 2050 27 211 45 577 38 745 -7 157 -23 223 -80 340
-33 68 -59 102 -127 171 -98 98 -199 157 -326 189 -77 20 -306 20 -37003 19
-36279 0 -36927 0 -36999 -19z"/>
</g>
</svg>
